# This file uses centimeters as units for non-parametric coordinates.

mtllib mod_wall_4.mtl
g default
v 0.500000 -10.000000 10.000000
v 0.500000 -10.000000 -10.000000
v 0.500000 10.000000 10.000000
v 0.500000 10.000000 -10.000000
v -0.500000 10.000000 10.000000
v -0.500000 10.000000 -10.000000
v -0.500000 -10.000000 10.000000
v -0.500000 -10.000000 -10.000000
v -0.500000 10.000000 1.908758
v -0.500000 -10.000000 1.908758
v 0.500000 -10.000000 1.908758
v 0.500000 10.000000 1.908758
v -0.500000 10.000000 -1.819690
v -0.500000 -10.000000 -1.819690
v 0.500000 -10.000000 -1.819690
v 0.500000 10.000000 -1.819690
v -0.500000 2.263053 10.000000
v 0.500000 2.263053 10.000000
v 0.500000 2.263053 2.109795
v 0.500000 2.263053 -2.017922
v 0.500000 2.263053 -10.000000
v -0.500000 2.263053 -10.000000
v -0.500000 2.263053 -2.017922
v -0.500000 2.263053 2.109795
v -0.500000 -2.017211 10.000000
v 0.500000 -2.017211 10.000000
v 0.500000 -2.017210 2.109795
v 0.500000 -2.017210 -2.017922
v 0.500000 -2.017211 -10.000000
v -0.500000 -2.017211 -10.000000
v -0.500000 -2.017210 -2.017922
v -0.500000 -2.017210 2.109795
v 0.500000 2.838660 1.908758
v 0.500000 2.838662 9.999999
v -0.500000 2.838662 9.999999
v -0.500000 2.838660 1.908758
v -0.500000 2.838660 -1.819690
v -0.500000 2.838662 -9.999999
v 0.500000 2.838662 -9.999999
v 0.500000 2.838660 -1.819689
v 0.500000 -2.656236 1.908758
v 0.500000 -2.656237 9.999999
v -0.500000 -2.656237 9.999999
v -0.500000 -2.656236 1.908758
v -0.500000 -2.656236 -1.819690
v -0.500000 -2.656237 -9.999999
v 0.500000 -2.656237 -9.999999
v 0.500000 -2.656236 -1.819689
v 0.500000 2.263053 -2.269681
v 0.500000 2.838660 -2.269681
v 0.500000 10.000000 -2.269681
v -0.500000 10.000000 -2.269681
v -0.500000 2.838660 -2.269681
v -0.500000 2.263053 -2.269681
v -0.500000 -2.017210 -2.269681
v -0.500000 -2.656236 -2.269681
v -0.500000 -10.000000 -2.269681
v 0.500000 -10.000000 -2.269681
v 0.500000 -2.656236 -2.269681
v 0.500000 -2.017210 -2.269681
v 0.500000 2.263053 2.332542
v 0.500000 2.838660 2.332542
v 0.500000 10.000000 2.332542
v -0.500000 10.000000 2.332542
v -0.500000 2.838660 2.332542
v -0.500000 2.263053 2.332542
v -0.500000 -2.017210 2.332542
v -0.500000 -2.656236 2.332542
v -0.500000 -10.000000 2.332542
v 0.500000 -10.000000 2.332542
v 0.500000 -2.656236 2.332542
v 0.500000 -2.017210 2.332542
v -0.708276 2.564952 1.908758
v -0.708277 2.564952 -1.819690
v -0.708276 2.263053 -1.819690
v -0.708276 2.263053 1.908758
v -0.708277 2.564952 -2.047098
v -0.708276 2.263053 -2.047099
v -0.708276 -2.017210 -2.047099
v -0.708276 -2.017210 -1.819690
v -0.708276 -2.017210 1.908758
v -0.708276 -2.382533 -1.819690
v -0.708276 -2.382533 1.908758
v -0.708276 -2.382533 -2.047099
v -0.708277 2.564952 2.109957
v -0.708276 2.263053 2.109957
v -0.708276 -2.017210 2.109957
v -0.708276 -2.382533 2.109957
v 0.708276 2.564952 -1.819690
v 0.708276 2.564952 1.908758
v 0.708276 2.263053 1.908758
v 0.708276 2.263053 -1.819690
v 0.708276 2.263053 -2.047099
v 0.708276 2.564952 -2.047099
v 0.708276 -2.017210 -2.047099
v 0.708276 -2.017210 -1.819690
v 0.708276 -2.382533 -1.819690
v 0.708276 -2.382533 -2.047099
v 0.708276 -2.017210 1.908758
v 0.708276 -2.382533 1.908758
v 0.708276 2.263053 2.109957
v 0.708276 2.564952 2.109957
v 0.708276 -2.382533 2.109957
v 0.708276 -2.017210 2.109957
vn 1.000000 0.000000 0.000000
vn 1.000000 0.000000 0.000000
vn 1.000000 0.000000 0.000000
vn 1.000000 0.000000 0.000000
vn 0.000000 1.000000 0.000000
vn 0.000000 1.000000 0.000000
vn 0.000000 1.000000 0.000000
vn 0.000000 1.000000 0.000000
vn -1.000000 0.000000 0.000000
vn -1.000000 0.000000 0.000000
vn -1.000000 0.000000 0.000000
vn -1.000000 0.000000 0.000000
vn 0.000000 -1.000000 0.000000
vn 0.000000 -1.000000 0.000000
vn 0.000000 -1.000000 0.000000
vn 0.000000 -1.000000 0.000000
vn -0.000001 0.000000 -1.000000
vn -0.000001 0.000000 -1.000000
vn 0.000000 0.000000 -1.000000
vn 0.000000 0.000000 -1.000000
vn -0.000001 0.000000 1.000000
vn -0.000001 0.000000 1.000000
vn 0.000000 0.000000 1.000000
vn 0.000000 0.000000 1.000000
vn -1.000000 -0.000001 0.000000
vn -1.000000 -0.000001 0.000000
vn -1.000000 -0.000000 0.000000
vn -1.000000 -0.000000 0.000000
vn 0.000000 -1.000000 0.000000
vn 0.000000 -1.000000 0.000000
vn 0.000000 -1.000000 0.000000
vn 0.000000 -1.000000 0.000000
vn 1.000000 0.000000 0.000000
vn 1.000000 0.000000 0.000000
vn 1.000000 0.000000 0.000000
vn 1.000000 0.000000 0.000000
vn 0.000000 1.000000 0.000000
vn 0.000000 1.000000 0.000000
vn 0.000000 1.000000 0.000000
vn 0.000000 1.000000 0.000000
vn -1.000000 -0.000001 0.000000
vn -1.000000 -0.000000 0.000000
vn 0.000000 -1.000000 0.000000
vn 0.000000 -1.000000 0.000000
vn 1.000000 0.000000 0.000000
vn 1.000000 0.000000 0.000000
vn 0.000000 1.000000 0.000000
vn 0.000000 1.000000 0.000000
vn -0.000001 -0.000000 1.000000
vn -0.000001 -0.000000 1.000000
vn 1.000000 0.000000 0.000000
vn 1.000000 0.000000 0.000000
vn 1.000000 0.000000 0.000000
vn 1.000000 0.000000 0.000000
vn -0.000001 -0.000000 -1.000000
vn -0.000001 -0.000000 -1.000000
vn -1.000000 0.000000 0.000000
vn -1.000000 0.000000 0.000000
vn -1.000000 0.000000 0.000000
vn -1.000000 0.000000 0.000000
vn 0.000000 0.000000 1.000000
vn 0.000000 0.000000 1.000000
vn 0.000000 0.000000 1.000000
vn 0.000000 0.000000 1.000000
vn 1.000000 0.000000 0.000000
vn 1.000000 0.000000 0.000000
vn 1.000000 0.000000 0.000000
vn 1.000000 0.000000 0.000000
vn 1.000000 -0.000000 0.000000
vn 1.000000 -0.000000 0.000000
vn 1.000000 -0.000000 0.000000
vn 1.000000 -0.000000 0.000000
vn 1.000000 0.000000 0.000000
vn 1.000000 0.000000 0.000000
vn 0.000000 0.000000 -1.000000
vn 0.000000 0.000000 -1.000000
vn 0.000000 0.000000 -1.000000
vn 0.000000 0.000000 -1.000000
vn -1.000000 0.000000 0.000000
vn -1.000000 0.000000 0.000000
vn -1.000000 0.000000 0.000000
vn -1.000000 0.000000 0.000000
vn -1.000000 0.000000 0.000000
vn -1.000000 0.000000 0.000000
vn -1.000000 0.000000 0.000000
vn -1.000000 0.000000 0.000000
vn -1.000000 0.000000 0.000000
vn -1.000000 0.000000 0.000000
vn -0.000000 1.000000 0.000000
vn -0.000000 1.000000 0.000000
vn -0.000000 1.000000 0.000000
vn -0.000000 1.000000 0.000000
vn 0.000000 0.000000 -1.000000
vn 0.000000 0.000000 -1.000000
vn 0.000000 0.000000 -1.000000
vn 0.000000 0.000000 -1.000000
vn 0.000000 -1.000000 0.000000
vn 0.000000 -1.000000 0.000000
vn 0.000000 -1.000000 0.000000
vn 0.000000 -1.000000 0.000000
vn 0.000000 0.000000 1.000000
vn 0.000000 0.000000 1.000000
vn 0.000000 0.000000 1.000000
vn 0.000000 0.000000 1.000000
vn 1.000000 0.000000 0.000000
vn 1.000000 0.000000 0.000000
vn 0.000000 -0.000000 1.000000
vn 0.000000 -0.000000 1.000000
vn -1.000000 0.000000 0.000000
vn -1.000000 0.000000 0.000000
vn -1.000000 0.000000 0.000000
vn -1.000000 0.000000 0.000000
vn -1.000000 0.000000 0.000000
vn -1.000000 0.000000 0.000000
vn -1.000000 0.000000 0.000000
vn -1.000000 0.000000 0.000000
vn 0.000000 -0.000000 -1.000000
vn 0.000000 -0.000000 -1.000000
vn 1.000000 0.000000 0.000000
vn 1.000000 0.000000 0.000000
vn 1.000000 0.000000 0.000000
vn 1.000000 0.000000 0.000000
vn 1.000000 0.000000 0.000000
vn 1.000000 0.000000 0.000000
vn -1.000000 0.000000 0.000000
vn -1.000000 0.000000 0.000000
vn -1.000000 0.000000 0.000000
vn -1.000000 0.000000 0.000000
vn 1.000000 0.000000 0.000000
vn 1.000000 0.000000 0.000000
vn 1.000000 0.000000 0.000000
vn 1.000000 0.000000 0.000000
vn 1.000000 0.000000 0.000000
vn 1.000000 0.000000 0.000000
vn 1.000000 0.000000 0.000000
vn 1.000000 0.000000 0.000000
vn 0.000000 1.000000 0.000000
vn 0.000000 1.000000 0.000000
vn -1.000000 0.000000 0.000000
vn -1.000000 0.000000 0.000000
vn -1.000000 0.000000 0.000000
vn -1.000000 0.000000 0.000000
vn -1.000000 0.000000 0.000000
vn -1.000000 0.000000 0.000000
vn -1.000000 0.000000 0.000000
vn -1.000000 0.000000 0.000000
vn 0.000000 -1.000000 0.000000
vn 0.000000 -1.000000 0.000000
vn 1.000000 0.000000 0.000000
vn 1.000000 0.000000 0.000000
vn 1.000000 0.000000 0.000000
vn 1.000000 0.000000 0.000000
vn 1.000000 0.000000 0.000000
vn 1.000000 0.000000 0.000000
vn -1.000000 -0.000000 -0.000000
vn -1.000000 -0.000001 -0.000001
vn -1.000000 0.000000 0.000000
vn -1.000000 0.000000 0.000000
vn 1.000000 0.000000 0.000000
vn 1.000000 0.000000 0.000000
vn -0.795800 0.605560 0.000000
vn -0.795800 0.605560 0.000000
vn -0.795800 0.605560 0.000000
vn -0.795800 0.605560 0.000000
vn 0.000000 -1.000000 0.000000
vn 0.000000 -1.000000 0.000000
vn 0.000000 -1.000000 0.000000
vn 0.000000 -1.000000 0.000000
vn -0.795799 0.605560 0.000000
vn -0.795799 0.605560 0.000000
vn -0.795799 0.605560 0.000000
vn -0.795799 0.605560 0.000000
vn -0.730184 0.000000 -0.683250
vn -0.730184 0.000000 -0.683250
vn -0.730184 0.000000 -0.683250
vn -0.730184 0.000000 -0.683250
vn -0.730184 0.000000 -0.683251
vn -0.730184 0.000000 -0.683251
vn -0.730184 0.000000 -0.683251
vn -0.730184 0.000000 -0.683251
vn 0.689425 0.000000 0.724357
vn 0.689425 0.000000 0.724357
vn 0.689425 0.000000 0.724357
vn 0.689425 0.000000 0.724357
vn 0.000000 1.000000 0.000000
vn 0.000000 1.000000 0.000000
vn 0.000000 1.000000 0.000000
vn 0.000000 1.000000 0.000000
vn -0.795796 -0.605565 0.000000
vn -0.795796 -0.605565 0.000000
vn -0.795796 -0.605565 0.000000
vn -0.795796 -0.605565 0.000000
vn -0.730184 0.000000 -0.683251
vn -0.730184 0.000000 -0.683251
vn -0.730184 0.000000 -0.683251
vn -0.730184 0.000000 -0.683251
vn -0.795796 -0.605565 0.000000
vn -0.795796 -0.605565 0.000000
vn -0.795796 -0.605565 0.000000
vn -0.795796 -0.605565 0.000000
vn -0.730186 -0.000000 0.683248
vn -0.730186 -0.000000 0.683248
vn -0.730186 -0.000000 0.683248
vn -0.730186 -0.000000 0.683248
vn -0.795800 0.605560 -0.000001
vn -0.795800 0.605560 -0.000001
vn -0.795800 0.605560 -0.000001
vn -0.795800 0.605560 -0.000001
vn -0.730187 0.000000 0.683248
vn -0.730187 0.000000 0.683248
vn -0.730187 0.000000 0.683248
vn -0.730187 0.000000 0.683248
vn 0.694493 0.000000 -0.719500
vn 0.694493 0.000000 -0.719500
vn 0.694493 0.000000 -0.719500
vn 0.694493 0.000000 -0.719500
vn -0.730186 0.000000 0.683248
vn -0.730186 0.000000 0.683248
vn -0.730186 0.000000 0.683248
vn -0.730186 0.000000 0.683248
vn -0.795796 -0.605565 0.000000
vn -0.795796 -0.605565 0.000000
vn -0.795796 -0.605565 0.000000
vn -0.795796 -0.605565 0.000000
vn 0.795800 0.605560 0.000000
vn 0.795800 0.605560 0.000000
vn 0.795800 0.605560 0.000000
vn 0.795800 0.605560 0.000000
vn 0.000000 -1.000000 0.000000
vn 0.000000 -1.000000 0.000000
vn 0.000000 -1.000000 0.000000
vn 0.000000 -1.000000 0.000000
vn 0.730184 0.000000 -0.683251
vn 0.730184 0.000000 -0.683251
vn 0.730184 0.000000 -0.683251
vn 0.730184 0.000000 -0.683251
vn 0.795800 0.605560 0.000000
vn 0.795800 0.605559 0.000000
vn 0.795800 0.605559 0.000000
vn 0.795800 0.605559 0.000000
vn 0.730184 0.000000 -0.683251
vn 0.730184 0.000000 -0.683251
vn 0.730184 0.000000 -0.683251
vn 0.730184 0.000000 -0.683251
vn -0.689425 0.000000 0.724357
vn -0.689425 0.000000 0.724357
vn -0.689425 0.000000 0.724357
vn -0.689425 0.000000 0.724357
vn 0.795796 -0.605565 0.000000
vn 0.795796 -0.605565 0.000000
vn 0.795796 -0.605565 0.000000
vn 0.795796 -0.605565 0.000000
vn 0.730184 0.000000 -0.683251
vn 0.730184 0.000000 -0.683251
vn 0.730184 0.000000 -0.683251
vn 0.730184 0.000000 -0.683251
vn 0.000000 1.000000 0.000000
vn 0.000000 1.000000 0.000000
vn 0.000000 1.000000 0.000000
vn 0.000000 1.000000 0.000000
vn 0.795796 -0.605565 0.000000
vn 0.795796 -0.605565 0.000000
vn 0.795796 -0.605565 0.000000
vn 0.795796 -0.605565 0.000000
vn 0.795800 0.605560 0.000000
vn 0.795800 0.605560 0.000000
vn 0.795800 0.605560 0.000000
vn 0.795800 0.605560 0.000000
vn 0.730187 0.000000 0.683248
vn 0.730187 0.000000 0.683248
vn 0.730187 0.000000 0.683248
vn 0.730187 0.000000 0.683248
vn 0.730187 0.000000 0.683248
vn 0.730187 0.000000 0.683248
vn 0.730187 0.000000 0.683248
vn 0.730187 0.000000 0.683248
vn 0.795796 -0.605565 0.000000
vn 0.795796 -0.605565 0.000000
vn 0.795796 -0.605565 0.000000
vn 0.795796 -0.605565 0.000000
vn 0.730187 0.000000 0.683248
vn 0.730187 0.000000 0.683248
vn 0.730187 0.000000 0.683248
vn 0.730187 0.000000 0.683248
vn -0.694493 0.000000 -0.719500
vn -0.694493 0.000000 -0.719500
vn -0.694493 0.000000 -0.719500
vn -0.694493 0.000000 -0.719500
s 1
g pCube1
usemtl initialShadingGroup
f 18//1 61//2 62//3 34//4
s 2
f 3//5 63//6 64//7 5//8
s 3
f 35//9 65//10 66//11 17//12
s 4
f 7//13 69//14 70//15 1//16
s 5
f 21//17 22//18 38//19 39//20
s 6
f 17//21 18//22 34//23 35//24
s 7
f 73//25 74//26 75//27 76//28
s 4
f 11//29 10//30 14//31 15//32
s 8
f 89//33 90//34 91//35 92//36
s 2
f 9//37 12//38 16//39 13//40
s 7
f 74//26 77//41 78//42 75//27
s 4
f 15//32 14//31 57//43 58//44
s 8
f 89//33 92//36 93//45 94//46
s 2
f 13//40 16//39 51//47 52//48
s 6
f 25//49 26//50 18//22 17//21
s 1
f 26//51 72//52 61//2 18//1
s 8
f 95//53 93//45 92//36 96//54
s 5
f 29//55 30//56 22//18 21//17
s 7
f 75//27 78//42 79//57 80//58
s 3
f 17//12 66//11 67//59 25//60
s 6
f 7//61 1//62 42//63 43//64
s 1
f 1//65 70//66 71//67 42//68
f 48//69 41//70 11//71 15//72
f 59//73 48//69 15//72 58//74
s 5
f 2//75 8//76 46//77 47//78
s 3
f 45//79 56//80 57//81 14//82
f 44//83 45//79 14//82 10//84
f 43//85 68//86 69//87 7//88
s off
f 31//89 32//90 27//91 28//92
f 19//93 27//94 32//95 24//96
f 24//97 23//98 20//99 19//100
f 23//101 31//102 28//103 20//104
s 1
f 34//4 62//3 63//105 3//106
s 6
f 35//24 34//23 3//107 5//108
s 3
f 5//109 64//110 65//10 35//9
f 9//111 13//112 37//113 36//114
f 13//112 52//115 53//116 37//113
s 5
f 39//20 38//19 6//117 4//118
s 1
f 16//119 40//120 50//121 51//122
f 12//123 33//124 40//120 16//119
f 42//68 71//67 72//52 26//51
s 6
f 43//64 42//63 26//50 25//49
s 3
f 25//60 67//59 68//86 43//85
s 7
f 81//125 80//58 82//126 83//127
f 80//58 79//57 84//128 82//126
s 5
f 47//78 46//77 30//56 29//55
s 8
f 95//53 96//54 97//129 98//130
f 96//54 99//131 100//132 97//129
s 1
f 50//121 49//133 21//134 39//135
f 51//122 50//121 39//135 4//136
s 2
f 52//48 51//47 4//137 6//138
s 3
f 53//116 52//115 6//139 38//140
f 54//141 53//116 38//140 22//142
f 55//143 54//141 22//142 30//144
f 56//80 55//143 30//144 46//145
f 57//81 56//80 46//145 8//146
s 4
f 58//44 57//43 8//147 2//148
s 1
f 47//149 59//73 58//74 2//150
f 29//151 60//152 59//73 47//149
f 21//134 49//133 60//152 29//151
s 8
f 101//153 91//35 90//34 102//154
s 1
f 63//105 62//3 33//124 12//123
s 2
f 64//7 63//6 12//38 9//37
s 3
f 65//10 64//110 9//111 36//114
s 7
f 86//155 85//156 73//25 76//28
f 87//157 86//155 76//28 81//125
f 88//158 87//157 81//125 83//127
s 3
f 69//87 68//86 44//83 10//84
s 4
f 70//15 69//14 10//30 11//29
s 1
f 71//67 70//66 11//71 41//70
s 8
f 104//159 103//160 100//132 99//131
f 101//153 104//159 99//131 91//35
s off
f 36//161 37//162 74//163 73//164
f 23//165 24//166 76//167 75//168
f 37//169 53//170 77//171 74//172
f 53//173 54//174 78//175 77//176
f 54//177 55//178 79//179 78//180
f 31//181 23//182 75//183 80//184
f 32//185 31//186 80//187 81//188
f 45//189 44//190 83//191 82//192
f 55//193 56//194 84//195 79//196
f 56//197 45//198 82//199 84//200
f 66//201 65//202 85//203 86//204
f 65//205 36//206 73//207 85//208
f 67//209 66//210 86//211 87//212
f 24//213 32//214 81//215 76//216
f 68//217 67//218 87//219 88//220
f 44//221 68//222 88//223 83//224
f 40//225 33//226 90//227 89//228
f 19//229 20//230 92//231 91//232
f 49//233 50//234 94//235 93//236
f 50//237 40//238 89//239 94//240
f 60//241 49//242 93//243 95//244
f 20//245 28//246 96//247 92//248
f 48//249 59//250 98//251 97//252
f 59//253 60//254 95//255 98//256
f 28//257 27//258 99//259 96//260
f 41//261 48//262 97//263 100//264
f 33//265 62//266 102//267 90//268
f 62//269 61//270 101//271 102//272
f 72//273 71//274 103//275 104//276
f 71//277 41//278 100//279 103//280
f 61//281 72//282 104//283 101//284
f 27//285 19//286 91//287 99//288
