# This file uses centimeters as units for non-parametric coordinates.

mtllib mod_playerbullet.mtl
g default
v 0.034712 -0.118513 -0.042347
v 0.000000 -0.118513 -0.074911
v -0.034712 -0.118513 -0.042347
v -0.049090 -0.118513 0.000000
v -0.034712 -0.118513 0.034712
v 0.000000 -0.118513 0.049090
v 0.034712 -0.118513 0.034712
v 0.049090 -0.118513 0.000000
v 0.064139 -0.090706 -0.122845
v 0.000000 -0.090706 -0.249956
v -0.064139 -0.090706 -0.122845
v -0.090706 -0.090706 0.000000
v -0.064139 -0.090706 0.064139
v 0.000000 -0.090706 0.090706
v 0.064139 -0.090706 0.064139
v 0.090706 -0.090706 0.000000
v 0.083802 -0.049090 -0.211048
v 0.000000 -0.049090 -0.456609
v -0.083802 -0.049090 -0.211048
v -0.118513 -0.049090 0.000000
v -0.083802 -0.049090 0.083802
v 0.000000 -0.049090 0.118513
v 0.083802 -0.049090 0.083802
v 0.118513 -0.049090 0.000000
v 0.090706 0.000000 -0.249956
v 0.000000 0.000000 -0.551002
v -0.090706 0.000000 -0.249956
v -0.128278 0.000000 0.000000
v -0.090706 0.000000 0.090706
v 0.000000 0.000000 0.128278
v 0.090706 0.000000 0.090706
v 0.128278 0.000000 0.000000
v 0.083802 0.049090 -0.211048
v 0.000000 0.049090 -0.456609
v -0.083802 0.049090 -0.211048
v -0.118513 0.049090 0.000000
v -0.083802 0.049090 0.083802
v 0.000000 0.049090 0.118513
v 0.083802 0.049090 0.083802
v 0.118513 0.049090 0.000000
v 0.064139 0.090706 -0.122845
v 0.000000 0.090706 -0.249956
v -0.064139 0.090706 -0.122845
v -0.090706 0.090706 0.000000
v -0.064139 0.090706 0.064139
v 0.000000 0.090706 0.090706
v 0.064139 0.090706 0.064139
v 0.090706 0.090706 0.000000
v 0.034712 0.118513 -0.042347
v 0.000000 0.118513 -0.074911
v -0.034712 0.118513 -0.042347
v -0.049090 0.118513 0.000000
v -0.034712 0.118513 0.034712
v 0.000000 0.118513 0.049090
v 0.034712 0.118513 0.034712
v 0.049090 0.118513 0.000000
v 0.000000 -0.128278 0.000000
v 0.000000 0.128278 0.000000
vt 0.270065 0.612541
vt 0.315837 0.612541
vt 0.561883 0.650703
vt 0.383214 0.650703
vt 0.141539 0.612541
vt 0.161749 0.612541
vt 0.120386 0.650703
vt 0.083043 0.650703
vt 0.210541 0.612541
vt 0.210541 0.650703
vt 0.852359 0.707816
vt 0.507194 0.707816
vt 0.092748 0.707816
vt 0.043956 0.707816
vt 0.210541 0.707816
vt 0.985039 0.775185
vt 0.561883 0.775185
vt 0.083043 0.775185
vt 0.030231 0.775185
vt 0.210541 0.775185
vt 0.852359 0.842554
vt 0.507194 0.842554
vt 0.092748 0.842554
vt 0.043956 0.842554
vt 0.210541 0.842554
vt 0.561883 0.899667
vt 0.383214 0.899667
vt 0.120386 0.899667
vt 0.083043 0.899667
vt 0.210541 0.899667
vt 0.315837 0.937829
vt 0.270065 0.937829
vt 0.161749 0.937829
vt 0.141539 0.937829
vt 0.210541 0.937829
vt 0.210541 0.599141
vt 0.210541 0.951229
vt 0.699433 0.105918
vt 0.745205 0.105918
vt 0.632056 0.142202
vt 0.453387 0.142202
vt 0.804729 0.105918
vt 0.804729 0.142202
vt 0.853521 0.105918
vt 0.894884 0.142202
vt 0.873731 0.105918
vt 0.932227 0.142202
vt 0.508076 0.196505
vt 0.162911 0.196505
vt 0.804729 0.196505
vt 0.922522 0.196505
vt 0.971313 0.196505
vt 0.453387 0.260559
vt 0.030231 0.260559
vt 0.804729 0.260559
vt 0.932227 0.260559
vt 0.985039 0.260559
vt 0.508076 0.324614
vt 0.162911 0.324614
vt 0.804729 0.324614
vt 0.922522 0.324614
vt 0.971313 0.324614
vt 0.632056 0.378916
vt 0.453387 0.378916
vt 0.804729 0.378916
vt 0.894884 0.378916
vt 0.932227 0.378916
vt 0.745205 0.415200
vt 0.699433 0.415200
vt 0.804729 0.415200
vt 0.853521 0.415200
vt 0.873731 0.415200
vt 0.804729 0.093177
vt 0.804729 0.427942
vn 0.279888 -0.944267 -0.173272
vn 0.279888 -0.944267 -0.173272
vn 0.279888 -0.944267 -0.173272
vn 0.279888 -0.944267 -0.173272
vn -0.279888 -0.944267 -0.173272
vn -0.279888 -0.944267 -0.173272
vn -0.279888 -0.944267 -0.173272
vn -0.279888 -0.944267 -0.173272
vn -0.517186 -0.846219 -0.128192
vn -0.517186 -0.846219 -0.128192
vn -0.517186 -0.846219 -0.128192
vn -0.517186 -0.846219 -0.128192
vn -0.541419 -0.810291 0.224263
vn -0.541419 -0.810291 0.224263
vn -0.541419 -0.810291 0.224263
vn -0.541419 -0.810291 0.224263
vn -0.224263 -0.810291 0.541419
vn -0.224263 -0.810291 0.541419
vn -0.224263 -0.810291 0.541419
vn -0.224263 -0.810291 0.541419
vn 0.224263 -0.810291 0.541419
vn 0.224263 -0.810291 0.541419
vn 0.224263 -0.810291 0.541419
vn 0.224263 -0.810291 0.541419
vn 0.541419 -0.810291 0.224263
vn 0.541419 -0.810291 0.224263
vn 0.541419 -0.810291 0.224263
vn 0.541419 -0.810291 0.224263
vn 0.517186 -0.846219 -0.128192
vn 0.517186 -0.846219 -0.128192
vn 0.517186 -0.846219 -0.128192
vn 0.517186 -0.846219 -0.128192
vn 0.509283 -0.836515 -0.202171
vn 0.509283 -0.836515 -0.202171
vn 0.509283 -0.836515 -0.202171
vn 0.509283 -0.836515 -0.202171
vn -0.509283 -0.836515 -0.202171
vn -0.509283 -0.836515 -0.202171
vn -0.509283 -0.836515 -0.202171
vn -0.509283 -0.836515 -0.202171
vn -0.786009 -0.601150 -0.144255
vn -0.786008 -0.601150 -0.144255
vn -0.786009 -0.601150 -0.144255
vn -0.786009 -0.601150 -0.144255
vn -0.786151 -0.525289 0.325634
vn -0.786151 -0.525289 0.325634
vn -0.786151 -0.525289 0.325634
vn -0.786151 -0.525289 0.325634
vn -0.325634 -0.525289 0.786151
vn -0.325634 -0.525289 0.786151
vn -0.325634 -0.525289 0.786151
vn -0.325634 -0.525289 0.786151
vn 0.325634 -0.525289 0.786151
vn 0.325634 -0.525289 0.786151
vn 0.325634 -0.525289 0.786151
vn 0.325634 -0.525289 0.786151
vn 0.786151 -0.525290 0.325634
vn 0.786151 -0.525290 0.325634
vn 0.786151 -0.525290 0.325634
vn 0.786151 -0.525290 0.325634
vn 0.786008 -0.601150 -0.144255
vn 0.786008 -0.601150 -0.144255
vn 0.786008 -0.601150 -0.144255
vn 0.786008 -0.601150 -0.144255
vn 0.858845 -0.432672 -0.274191
vn 0.858845 -0.432672 -0.274191
vn 0.858845 -0.432672 -0.274191
vn 0.858845 -0.432672 -0.274191
vn -0.858845 -0.432672 -0.274191
vn -0.858845 -0.432672 -0.274191
vn -0.858845 -0.432672 -0.274191
vn -0.858845 -0.432672 -0.274191
vn -0.962977 -0.223332 -0.150991
vn -0.962977 -0.223332 -0.150991
vn -0.962977 -0.223332 -0.150991
vn -0.962977 -0.223332 -0.150991
vn -0.908663 -0.180744 0.376381
vn -0.908663 -0.180744 0.376381
vn -0.908663 -0.180744 0.376381
vn -0.908663 -0.180744 0.376381
vn -0.376381 -0.180744 0.908663
vn -0.376381 -0.180744 0.908663
vn -0.376381 -0.180744 0.908663
vn -0.376381 -0.180744 0.908663
vn 0.376380 -0.180745 0.908663
vn 0.376380 -0.180745 0.908663
vn 0.376380 -0.180745 0.908663
vn 0.376380 -0.180745 0.908663
vn 0.908663 -0.180744 0.376381
vn 0.908663 -0.180744 0.376381
vn 0.908663 -0.180744 0.376381
vn 0.908663 -0.180744 0.376381
vn 0.962977 -0.223331 -0.150991
vn 0.962977 -0.223331 -0.150991
vn 0.962977 -0.223331 -0.150991
vn 0.962977 -0.223331 -0.150991
vn 0.858845 0.432672 -0.274191
vn 0.858845 0.432672 -0.274191
vn 0.858845 0.432672 -0.274191
vn 0.858845 0.432672 -0.274191
vn -0.858845 0.432672 -0.274191
vn -0.858845 0.432672 -0.274191
vn -0.858845 0.432672 -0.274191
vn -0.858845 0.432672 -0.274191
vn -0.962977 0.223332 -0.150991
vn -0.962977 0.223332 -0.150991
vn -0.962977 0.223332 -0.150991
vn -0.962977 0.223332 -0.150991
vn -0.908663 0.180744 0.376381
vn -0.908663 0.180744 0.376381
vn -0.908663 0.180744 0.376381
vn -0.908663 0.180744 0.376381
vn -0.376381 0.180744 0.908663
vn -0.376381 0.180744 0.908663
vn -0.376381 0.180744 0.908663
vn -0.376381 0.180744 0.908663
vn 0.376380 0.180745 0.908663
vn 0.376380 0.180745 0.908663
vn 0.376380 0.180745 0.908663
vn 0.376380 0.180745 0.908663
vn 0.908663 0.180744 0.376381
vn 0.908663 0.180744 0.376381
vn 0.908663 0.180744 0.376381
vn 0.908663 0.180744 0.376381
vn 0.962977 0.223331 -0.150991
vn 0.962977 0.223331 -0.150991
vn 0.962977 0.223331 -0.150991
vn 0.962977 0.223331 -0.150991
vn 0.509283 0.836515 -0.202171
vn 0.509283 0.836515 -0.202171
vn 0.509283 0.836515 -0.202171
vn 0.509283 0.836515 -0.202171
vn -0.509283 0.836515 -0.202171
vn -0.509283 0.836515 -0.202171
vn -0.509283 0.836515 -0.202171
vn -0.509283 0.836515 -0.202171
vn -0.786009 0.601150 -0.144255
vn -0.786009 0.601150 -0.144255
vn -0.786008 0.601150 -0.144255
vn -0.786009 0.601150 -0.144255
vn -0.786151 0.525289 0.325634
vn -0.786151 0.525289 0.325634
vn -0.786151 0.525289 0.325634
vn -0.786151 0.525289 0.325634
vn -0.325634 0.525289 0.786151
vn -0.325634 0.525289 0.786151
vn -0.325634 0.525289 0.786151
vn -0.325634 0.525289 0.786151
vn 0.325634 0.525289 0.786151
vn 0.325634 0.525289 0.786151
vn 0.325634 0.525289 0.786151
vn 0.325634 0.525289 0.786151
vn 0.786151 0.525290 0.325634
vn 0.786151 0.525290 0.325634
vn 0.786151 0.525290 0.325634
vn 0.786151 0.525290 0.325634
vn 0.786008 0.601150 -0.144255
vn 0.786008 0.601150 -0.144255
vn 0.786008 0.601150 -0.144255
vn 0.786008 0.601151 -0.144255
vn 0.279888 0.944267 -0.173272
vn 0.279888 0.944267 -0.173272
vn 0.279888 0.944267 -0.173272
vn 0.279888 0.944267 -0.173272
vn -0.279888 0.944267 -0.173272
vn -0.279888 0.944267 -0.173272
vn -0.279888 0.944267 -0.173272
vn -0.279888 0.944267 -0.173272
vn -0.517186 0.846219 -0.128192
vn -0.517186 0.846219 -0.128192
vn -0.517186 0.846219 -0.128192
vn -0.517186 0.846219 -0.128192
vn -0.541419 0.810291 0.224263
vn -0.541419 0.810291 0.224263
vn -0.541419 0.810291 0.224263
vn -0.541419 0.810291 0.224263
vn -0.224263 0.810291 0.541419
vn -0.224263 0.810291 0.541419
vn -0.224263 0.810291 0.541419
vn -0.224263 0.810291 0.541419
vn 0.224263 0.810291 0.541419
vn 0.224263 0.810291 0.541419
vn 0.224263 0.810291 0.541419
vn 0.224263 0.810291 0.541419
vn 0.541419 0.810291 0.224263
vn 0.541419 0.810291 0.224263
vn 0.541419 0.810291 0.224263
vn 0.541419 0.810291 0.224263
vn 0.517186 0.846219 -0.128192
vn 0.517186 0.846219 -0.128192
vn 0.517186 0.846219 -0.128192
vn 0.517186 0.846219 -0.128192
vn 0.120375 -0.984401 -0.128315
vn 0.120375 -0.984401 -0.128315
vn 0.120375 -0.984401 -0.128315
vn -0.120375 -0.984401 -0.128315
vn -0.120375 -0.984401 -0.128315
vn -0.120375 -0.984401 -0.128315
vn -0.194663 -0.978641 -0.066094
vn -0.194663 -0.978641 -0.066094
vn -0.194663 -0.978641 -0.066094
vn -0.194456 -0.977599 0.080547
vn -0.194456 -0.977599 0.080547
vn -0.194456 -0.977599 0.080547
vn -0.080546 -0.977599 0.194456
vn -0.080546 -0.977599 0.194456
vn -0.080546 -0.977599 0.194456
vn 0.080546 -0.977599 0.194456
vn 0.080546 -0.977599 0.194456
vn 0.080546 -0.977599 0.194456
vn 0.194456 -0.977599 0.080547
vn 0.194456 -0.977599 0.080547
vn 0.194456 -0.977599 0.080547
vn 0.194663 -0.978641 -0.066094
vn 0.194663 -0.978641 -0.066094
vn 0.194663 -0.978641 -0.066094
vn 0.120375 0.984401 -0.128315
vn 0.120375 0.984401 -0.128315
vn 0.120375 0.984401 -0.128315
vn -0.120375 0.984401 -0.128315
vn -0.120375 0.984401 -0.128315
vn -0.120375 0.984401 -0.128315
vn -0.194663 0.978641 -0.066094
vn -0.194663 0.978641 -0.066094
vn -0.194663 0.978641 -0.066094
vn -0.194456 0.977599 0.080547
vn -0.194456 0.977599 0.080547
vn -0.194456 0.977599 0.080547
vn -0.080546 0.977599 0.194456
vn -0.080546 0.977599 0.194456
vn -0.080546 0.977599 0.194456
vn 0.080546 0.977599 0.194456
vn 0.080546 0.977599 0.194456
vn 0.080546 0.977599 0.194456
vn 0.194456 0.977599 0.080547
vn 0.194456 0.977599 0.080547
vn 0.194456 0.977599 0.080547
vn 0.194663 0.978641 -0.066094
vn 0.194663 0.978641 -0.066094
vn 0.194663 0.978641 -0.066094
s off
g pSphere1
usemtl lambert2SG
f 1/1/1 2/2/2 10/3/3 9/4/4
f 2/38/5 3/39/6 11/40/7 10/41/8
f 3/39/9 4/42/10 12/43/11 11/40/12
f 4/42/13 5/44/14 13/45/15 12/43/16
f 5/44/17 6/46/18 14/47/19 13/45/20
f 6/5/21 7/6/22 15/7/23 14/8/24
f 7/6/25 8/9/26 16/10/27 15/7/28
f 8/9/29 1/1/30 9/4/31 16/10/32
f 9/4/33 10/3/34 18/11/35 17/12/36
f 10/41/37 11/40/38 19/48/39 18/49/40
f 11/40/41 12/43/42 20/50/43 19/48/44
f 12/43/45 13/45/46 21/51/47 20/50/48
f 13/45/49 14/47/50 22/52/51 21/51/52
f 14/8/53 15/7/54 23/13/55 22/14/56
f 15/7/57 16/10/58 24/15/59 23/13/60
f 16/10/61 9/4/62 17/12/63 24/15/64
f 17/12/65 18/11/66 26/16/67 25/17/68
f 18/49/69 19/48/70 27/53/71 26/54/72
f 19/48/73 20/50/74 28/55/75 27/53/76
f 20/50/77 21/51/78 29/56/79 28/55/80
f 21/51/81 22/52/82 30/57/83 29/56/84
f 22/14/85 23/13/86 31/18/87 30/19/88
f 23/13/89 24/15/90 32/20/91 31/18/92
f 24/15/93 17/12/94 25/17/95 32/20/96
f 25/17/97 26/16/98 34/21/99 33/22/100
f 26/54/101 27/53/102 35/58/103 34/59/104
f 27/53/105 28/55/106 36/60/107 35/58/108
f 28/55/109 29/56/110 37/61/111 36/60/112
f 29/56/113 30/57/114 38/62/115 37/61/116
f 30/19/117 31/18/118 39/23/119 38/24/120
f 31/18/121 32/20/122 40/25/123 39/23/124
f 32/20/125 25/17/126 33/22/127 40/25/128
f 33/22/129 34/21/130 42/26/131 41/27/132
f 34/59/133 35/58/134 43/63/135 42/64/136
f 35/58/137 36/60/138 44/65/139 43/63/140
f 36/60/141 37/61/142 45/66/143 44/65/144
f 37/61/145 38/62/146 46/67/147 45/66/148
f 38/24/149 39/23/150 47/28/151 46/29/152
f 39/23/153 40/25/154 48/30/155 47/28/156
f 40/25/157 33/22/158 41/27/159 48/30/160
f 41/27/161 42/26/162 50/31/163 49/32/164
f 42/64/165 43/63/166 51/68/167 50/69/168
f 43/63/169 44/65/170 52/70/171 51/68/172
f 44/65/173 45/66/174 53/71/175 52/70/176
f 45/66/177 46/67/178 54/72/179 53/71/180
f 46/29/181 47/28/182 55/33/183 54/34/184
f 47/28/185 48/30/186 56/35/187 55/33/188
f 48/30/189 41/27/190 49/32/191 56/35/192
f 2/2/193 1/1/194 57/36/195
f 3/39/196 2/38/197 57/73/198
f 4/42/199 3/39/200 57/73/201
f 5/44/202 4/42/203 57/73/204
f 6/46/205 5/44/206 57/73/207
f 7/6/208 6/5/209 57/36/210
f 8/9/211 7/6/212 57/36/213
f 1/1/214 8/9/215 57/36/216
f 49/32/217 50/31/218 58/37/219
f 50/69/220 51/68/221 58/74/222
f 51/68/223 52/70/224 58/74/225
f 52/70/226 53/71/227 58/74/228
f 53/71/229 54/72/230 58/74/231
f 54/34/232 55/33/233 58/37/234
f 55/33/235 56/35/236 58/37/237
f 56/35/238 49/32/239 58/37/240
